:SAMPLES-PER-SECOND 30
:FRAME-RANGE 1-1700
:FULLY-SPECIFIED
:DEGREES
691
root  46.6418 39.2854 -64.9653 177.699 -64.6199 173.681
RightUpLeg  -13.4342 2.735 -7.39604
RightLeg  20.7966 0.617611 0.0455576
RightFoot  -18.8789 0.528272 9.94561
RightToes  6.35937e-011 1.2921e-014 -6.02303e-014
Spine  20.9616 3.22526 1.23368
Spine1  -5.82005 2.8277 0.865822
HEad  -9.00148 23.9892 -21.5239
LeftShoulder1  1.98032 -8.88082 -9.08422
LeftArm  22.4563 -40.0439 -94.1609
LeftForeArm  78.7707 5.42298 -14.0441
LeftHand  -0.34561 13.6134 -3.6701
RightShoulder  4.1086 10.1874 24.4456
RightArm  -18.7412 31.621 70.69
RightForeArm  94.6644 -3.73321 0.535685
RightHand  0.678172 -9.34084 -20.233
LeftUpLeg  -100.782 8.6912 -42.6027
LeftLeg  110.749 -3.08671 6.60534
LeftFoot  -30.8681 -0.396207 -3.38289
LeftToes  -1.9349e-011 5.45182e-011 1.33515e-010
692
root  45.4685 38.0704 -65.8879 175.942 -67.4426 175.121
RightUpLeg  -15.8182 4.90782 -6.92062
RightLeg  26.2683 2.27294 0.989877
RightFoot  -7.73312 -0.442273 12.3205
RightToes  6.35937e-011 1.2921e-014 -6.02303e-014
Spine  20.6998 3.49775 2.19045
Spine1  -4.59195 2.63986 1.55357
HEad  -6.73423 25.0478 -19.7155
LeftShoulder1  1.8331 -8.99312 -7.57719
LeftArm  21.557 -40.8466 -95.1647
LeftForeArm  78.6701 5.68147 -13.7317
LeftHand  -0.365279 13.5553 -3.96863
RightShoulder  4.01278 10.0989 23.9033
RightArm  -18.6821 32.0578 71.7839
RightForeArm  94.7299 -3.67037 0.184555
RightHand  0.66673 -9.22672 -20.4712
LeftUpLeg  -99.6818 10.034 -41.2262
LeftLeg  111.254 -3.85663 8.20983
LeftFoot  -31.1835 -0.282796 -2.69116
LeftToes  -1.9349e-011 5.45182e-011 1.33515e-010
693
root  44.457 36.2606 -66.7394 172.884 -71.3514 175.658
RightUpLeg  -20.4848 1.52008 -6.45172
RightLeg  45.556 2.05664 1.93099
RightFoot  -14.211 0.0417995 5.51482
RightToes  6.35937e-011 1.2921e-014 -6.02303e-014
Spine  23.4645 2.84459 1.39622
Spine1  -3.29908 2.31997 1.79816
HEad  -6.63159 26.7862 -20.5054
LeftShoulder1  1.67223 -8.49467 -6.75387
LeftArm  18.2797 -40.7542 -96.0849
LeftForeArm  84.0832 5.92289 -12.7387
LeftHand  -0.379504 13.8408 -4.00167
RightShoulder  3.94366 10.0169 23.5495
RightArm  -16.6512 33.2443 71.9985
RightForeArm  94.2205 -3.89895 1.39155
RightHand  0.730823 -9.4226 -21.2537
LeftUpLeg  -98.3931 10.4658 -41.7395
LeftLeg  111.266 -4.82554 10.3911
LeftFoot  -30.8495 -0.168567 -2.06195
LeftToes  -1.9349e-011 5.45182e-011 1.33515e-010
694
root  43.1476 35.6798 -67.4926 167.076 -77.6455 -178.882
RightUpLeg  -18.44 -3.23782 -5.80046
RightLeg  50.8214 1.02145 0.978929
RightFoot  -19.812 0.263526 5.36947
RightToes  6.35937e-011 1.2921e-014 -6.02303e-014
Spine  22.128 2.17298 0.985264
Spine1  -1.5877 0.805608 4.54423
HEad  -5.77775 26.8444 -19.2709
LeftShoulder1  1.69215 -9.24049 -5.98304
LeftArm  23.1111 -41.7922 -97.6254
LeftForeArm  79.5562 5.60359 -13.772
LeftHand  -0.292751 13.8348 -2.86098
RightShoulder  3.74641 9.45624 23.2886
RightArm  -15.7639 33.93 71.0946
RightForeArm  94.3359 -4.00685 2.0633
RightHand  0.698769 -9.28582 -21.0651
LeftUpLeg  -94.7919 8.84415 -41.7377
LeftLeg  110.028 -4.08168 9.26077
LeftFoot  -31.2248 -0.271751 -2.62393
LeftToes  -1.9349e-011 5.45182e-011 1.33515e-010
695
root  41.8273 35.3041 -68.0339 159.404 -82.7562 -171.17
RightUpLeg  -16.0783 -7.23085 -6.03341
RightLeg  54.0278 0.44488 0.256481
RightFoot  -24.4076 0.510322 5.89884
RightToes  6.35937e-011 1.2921e-014 -6.02303e-014
Spine  21.8844 2.0164 0.952583
Spine1  -2.29348 0.577229 5.0412
HEad  -5.74848 26.352 -18.222
LeftShoulder1  1.84453 -9.4827 -7.03574
LeftArm  20.2862 -41.3652 -98.6233
LeftForeArm  83.9306 5.77234 -13.1338
LeftHand  -0.328231 13.8253 -3.33337
RightShoulder  3.58264 8.87156 23.3552
RightArm  -14.9074 32.9777 69.4195
RightForeArm  93.1934 -4.28502 3.40914
RightHand  0.6692 -9.01962 -21.6239
LeftUpLeg  -93.9953 6.42611 -41.9244
LeftLeg  110.174 -3.32804 7.38326
LeftFoot  -31.0596 -0.439234 -3.60357
LeftToes  -1.9349e-011 5.45182e-011 1.33515e-010
696
root  40.3901 35.9036 -68.2586 149.475 -85.9405 -160.797
RightUpLeg  -11.2003 -11.1825 -7.28308
RightLeg  50.6381 1.07055 1.03674
RightFoot  -25.2782 0.579215 6.13884
RightToes  6.35937e-011 1.2921e-014 -6.02303e-014
Spine  20.7063 2.21468 1.90917
Spine1  -3.0005 0.905257 4.47345
HEad  -5.82374 26.2345 -18.1438
LeftShoulder1  1.88961 -9.5155 -7.38916
LeftArm  22.7951 -40.8885 -99.5375
LeftForeArm  83.9839 5.42208 -13.7009
LeftHand  -0.33729 14.0202 -3.36126
RightShoulder  3.57577 8.77972 23.5314
RightArm  -14.404 32.0868 68.1367
RightForeArm  92.0374 -4.49531 4.35538
RightHand  0.620296 -8.79306 -21.4219
LeftUpLeg  -94.0337 5.63553 -41.6415
LeftLeg  110.538 -3.30683 7.20161
LeftFoot  -31.5063 -0.46884 -3.70403
LeftToes  -1.9349e-011 5.45182e-011 1.33515e-010
697
root  38.9206 36.988 -68.2609 166.548 -87.7046 -177.358
RightUpLeg  -5.76848 -10.866 -9.44408
RightLeg  44.3289 1.22712 0.975349
RightFoot  -23.3655 0.683105 7.98248
RightToes  6.35937e-011 1.2921e-014 -6.02303e-014
Spine  19.3978 2.78415 1.81934
Spine1  -3.96914 1.60504 3.36129
HEad  -4.32551 26.5944 -18.0797
LeftShoulder1  1.89628 -9.21256 -7.84986
LeftArm  21.7552 -40.4956 -98.9685
LeftForeArm  85.688 5.38312 -13.634
LeftHand  -0.370074 14.071 -3.75856
RightShoulder  3.61943 8.78884 23.8897
RightArm  -15.5446 30.5342 68.7156
RightForeArm  92.0721 -4.40051 3.79226
RightHand  0.439603 -7.93314 -20.535
LeftUpLeg  -96.3088 6.55629 -41.7504
LeftLeg  112.25 -3.46682 6.97822
LeftFoot  -31.3589 -0.389061 -3.27502
LeftToes  -1.9349e-011 5.45182e-011 1.33515e-010
